<?xml version="1.0" standalone="no"?>
<!DOCTYPE svg PUBLIC "-//W3C//DTD SVG 20010904//EN"
 "http://www.w3.org/TR/2001/REC-SVG-20010904/DTD/svg10.dtd">
<svg version="1.0" xmlns="http://www.w3.org/2000/svg"
 width="300px" height="300px" viewBox="0 0 4292.000000 4267.000000"
 preserveAspectRatio="xMidYMid meet">

<g transform="translate(0.000000,4267.000000) scale(0.100000,-0.100000)"
fill="#000000" stroke="none">
<path d="M11880 38034 c-238 -20 -363 -40 -555 -89 -609 -157 -1132 -416
-1616 -802 -172 -137 -504 -470 -643 -643 -112 -141 -298 -414 -381 -559 -187
-330 -333 -696 -425 -1066 -65 -261 -72 -333 -77 -841 -7 -647 8 -903 67
-1134 194 -760 734 -1651 1438 -2372 l134 -137 -105 -168 c-275 -442 -625
-1116 -891 -1715 -436 -984 -668 -1804 -756 -2668 -18 -168 -24 -751 -11 -964
48 -785 143 -1325 407 -2315 120 -452 170 -553 302 -618 51 -25 68 -28 157
-28 81 0 109 4 146 21 68 32 117 80 180 177 l57 89 6 -64 c3 -34 8 -148 11
-253 12 -418 68 -848 181 -1398 164 -798 366 -1416 645 -1977 218 -437 488
-859 858 -1340 385 -502 596 -676 844 -697 l68 -6 116 -156 c525 -705 1128
-1353 1848 -1985 400 -350 542 -464 1585 -1261 1231 -941 1779 -1366 2410
-1870 824 -658 1267 -1039 1725 -1483 519 -503 876 -896 1394 -1532 297 -365
334 -402 459 -452 48 -19 76 -23 172 -23 202 0 217 12 618 499 503 610 748
883 1182 1316 427 426 653 630 1215 1100 711 593 1396 1131 3132 2458 1119
856 1344 1038 1813 1468 616 566 1105 1104 1597 1760 l121 161 79 5 c85 5 162
32 261 89 75 45 320 290 443 444 161 202 386 509 524 715 558 834 863 1593
1094 2720 122 600 178 1040 198 1558 l8 192 45 -76 c53 -90 111 -146 188 -182
49 -23 70 -27 147 -27 78 0 97 4 146 28 112 55 183 161 248 372 71 232 259
989 315 1265 87 436 147 963 166 1454 31 802 -65 1472 -332 2336 -271 878
-816 2040 -1383 2953 l-48 77 129 133 c524 534 997 1222 1243 1807 67 160 164
442 201 590 53 212 55 242 55 950 0 734 1 725 -76 1032 -137 545 -423 1129
-764 1558 -599 753 -1387 1263 -2311 1494 -333 83 -568 101 -1219 93 -460 -6
-466 -6 -700 -66 -529 -134 -1035 -363 -1540 -696 -283 -187 -447 -316 -764
-599 -90 -80 -167 -146 -172 -146 -5 0 -105 36 -222 79 -845 314 -1449 454
-2127 491 -237 13 -959 13 -1155 0 -778 -52 -1422 -187 -2022 -426 -91 -36
-204 -83 -251 -105 -47 -21 -93 -39 -102 -39 -10 0 -53 16 -96 36 -153 70
-399 165 -593 228 -715 234 -1435 326 -2449 313 -423 -5 -562 -14 -865 -57
-513 -72 -1066 -223 -1676 -456 -163 -63 -196 -73 -209 -62 -10 7 -82 72 -162
143 -298 268 -489 417 -765 600 -445 295 -913 517 -1370 650 -231 67 -368 94
-526 105 -204 14 -822 10 -1019 -6z m830 -1624 c212 -37 395 -98 651 -215 379
-172 663 -363 939 -631 l115 -112 -41 -44 c-93 -100 -134 -215 -134 -372 0
-209 73 -390 215 -531 91 -91 175 -144 290 -182 70 -24 96 -27 215 -27 117 -1
145 2 210 23 108 35 302 137 555 290 467 284 573 346 714 416 470 236 1025
382 1746 461 227 25 823 25 1050 0 832 -91 1345 -239 2130 -614 l160 -77 90 0
90 0 143 68 c770 366 1260 512 2042 608 210 26 808 38 1024 20 666 -55 1273
-198 1743 -410 128 -58 322 -166 568 -316 524 -320 721 -427 849 -459 97 -24
281 -22 376 5 201 55 369 196 460 384 56 117 70 181 70 332 0 186 -28 269
-129 377 l-46 49 65 59 c319 293 466 403 755 561 218 119 507 240 695 291 200
53 457 82 655 72 531 -25 1003 -186 1393 -475 358 -266 609 -574 768 -944 272
-636 317 -1337 122 -1946 -97 -304 -246 -580 -442 -821 -82 -100 -293 -311
-389 -388 -136 -109 -128 -106 -387 -112 l-225 -5 -98 -47 c-124 -60 -246
-144 -386 -264 -141 -121 -214 -203 -254 -284 -30 -60 -32 -72 -32 -165 0 -92
3 -106 32 -167 42 -90 66 -123 280 -400 326 -421 560 -766 751 -1108 193 -347
546 -1066 757 -1545 257 -583 480 -1300 565 -1825 17 -102 32 -198 35 -213 4
-25 -7 -18 -98 64 -245 221 -405 330 -567 386 -155 53 -307 45 -445 -24 -138
-70 -292 -206 -347 -308 -52 -97 -68 -183 -68 -360 0 -178 10 -272 69 -640
124 -779 160 -1154 181 -1921 28 -1053 -67 -2076 -265 -2849 -50 -194 -152
-515 -164 -515 -4 0 -12 10 -18 23 -26 56 -147 203 -262 318 -107 107 -138
132 -205 165 l-80 39 -131 0 c-127 0 -132 -1 -197 -33 -171 -84 -272 -276
-378 -722 -131 -549 -188 -707 -431 -1193 -506 -1010 -969 -1614 -1830 -2387
-590 -531 -941 -826 -1387 -1166 -406 -310 -501 -386 -1112 -889 -261 -215
-673 -553 -915 -750 -1291 -1053 -1345 -1102 -2532 -2278 -365 -362 -666 -657
-671 -657 -5 0 -305 293 -668 651 -1218 1204 -1224 1209 -2489 2243 -390 319
-863 707 -1050 861 -470 388 -638 522 -1027 819 -444 339 -813 649 -1408 1184
-744 670 -1200 1231 -1633 2014 -171 308 -362 714 -452 963 -26 72 -89 297
-140 500 -124 496 -163 598 -273 717 -80 86 -157 121 -279 126 -177 8 -265
-33 -447 -208 -109 -106 -189 -203 -250 -303 l-35 -59 -15 37 c-9 21 -36 99
-60 174 -280 869 -402 1999 -356 3301 25 723 54 1017 176 1800 96 612 98 785
13 958 -66 135 -192 253 -364 339 -176 89 -333 85 -530 -14 -140 -71 -262
-161 -467 -347 -96 -86 -108 -94 -108 -72 0 91 99 581 171 842 182 663 388
1173 860 2124 299 604 382 751 637 1136 128 194 196 287 537 734 73 96 144
200 168 249 41 83 42 86 42 190 0 93 -3 113 -26 161 -36 76 -103 155 -222 261
-193 172 -363 279 -507 318 -63 18 -104 21 -258 21 l-184 0 -59 32 c-76 40
-182 130 -337 287 -149 151 -221 238 -324 396 -179 272 -314 606 -368 910
-154 866 132 1835 699 2367 409 383 876 605 1441 683 161 22 527 14 690 -15z"/>
<path d="M14650 30240 c-141 -12 -207 -25 -320 -67 -140 -52 -427 -194 -487
-242 -84 -66 -81 -112 12 -200 107 -101 365 -248 551 -314 88 -32 290 -76 549
-122 110 -20 265 -47 345 -61 179 -32 349 -74 418 -104 53 -23 112 -78 112
-106 0 -30 -24 -61 -134 -169 -150 -148 -181 -213 -207 -437 -16 -136 -6 -540
15 -663 81 -455 420 -898 851 -1110 190 -93 324 -134 530 -161 349 -47 757 35
1051 211 110 65 265 184 389 298 146 135 226 198 272 219 76 33 110 4 98 -85
-13 -91 -31 -146 -189 -568 -186 -500 -908 -2455 -1048 -2839 -784 -2155
-1087 -3158 -1149 -3800 -54 -568 189 -1359 583 -1892 204 -276 624 -692 888
-879 197 -140 261 -169 422 -195 57 -9 171 -36 253 -59 396 -114 859 -161
1110 -112 273 54 527 147 1015 375 407 189 586 248 855 283 127 16 373 -1 530
-36 219 -49 349 -100 835 -328 451 -210 759 -303 1046 -314 304 -12 543 25
1036 158 37 10 104 23 149 29 99 14 171 39 267 96 299 177 766 617 1029 969
192 256 376 636 476 980 175 603 158 1004 -79 1875 -169 620 -484 1561 -959
2860 -191 522 -860 2333 -1012 2740 -196 523 -213 571 -220 646 -6 70 6 104
40 104 33 0 112 -50 194 -122 313 -275 338 -296 453 -370 112 -73 193 -113
322 -159 230 -82 402 -106 688 -95 176 6 302 31 470 91 450 162 823 547 978
1010 49 148 56 217 56 580 1 366 -4 408 -66 535 -24 51 -56 89 -144 175 -132
129 -141 143 -119 185 39 76 185 121 670 205 320 56 490 89 620 121 240 60
577 242 704 379 34 37 41 51 41 86 0 60 -37 90 -226 186 -187 95 -366 168
-461 188 -181 38 -958 45 -1218 11 -416 -55 -736 -195 -1325 -583 -250 -165
-341 -228 -930 -638 -206 -144 -510 -353 -675 -465 -457 -310 -675 -471 -876
-649 -183 -161 -340 -331 -376 -407 -20 -42 -18 -55 77 -369 222 -740 453
-1432 695 -2074 350 -933 967 -2654 1176 -3281 193 -581 414 -1317 521 -1735
40 -152 42 -167 42 -310 0 -144 -2 -155 -37 -272 -82 -274 -214 -573 -360
-818 -265 -443 -570 -684 -1050 -829 -174 -53 -265 -66 -457 -66 -143 0 -178
3 -236 21 -97 30 -257 112 -484 249 -390 234 -584 330 -867 427 -91 31 -179
66 -196 77 -46 31 -79 100 -74 154 9 81 94 184 488 587 335 344 393 406 480
515 140 176 231 325 305 498 72 168 84 231 85 424 0 195 -11 248 -76 384 -77
160 -196 291 -372 412 l-91 62 -1311 0 -1311 0 -95 -70 c-251 -185 -383 -368
-429 -593 -21 -98 -21 -285 0 -383 22 -108 67 -231 134 -364 122 -243 223
-367 695 -850 323 -331 462 -486 496 -552 38 -75 15 -181 -51 -228 -17 -12
-109 -48 -204 -81 -276 -93 -466 -187 -851 -418 -248 -150 -410 -232 -505
-258 -101 -27 -369 -25 -516 5 -437 88 -826 325 -1070 652 -266 357 -512 901
-556 1229 -15 116 -3 203 67 476 126 493 347 1217 562 1845 288 840 812 2294
1156 3210 268 714 737 2166 737 2283 0 47 -45 113 -158 229 -280 290 -362 353
-1522 1160 -1298 903 -1486 1026 -1826 1190 -231 112 -477 183 -714 208 -129
13 -870 21 -1000 10z"/>
</g>
</svg>
