<svg aria-hidden="true" style="position: absolute; width: 0; height: 0; overflow: hidden;" version="1.1" xmlns="http://www.w3.org/2000/svg" xmlns:xlink="http://www.w3.org/1999/xlink">
<defs>
<symbol id="icon-bear" viewBox="0 0 50 50">
<path d="M8.909 3.477c-0.178 0.015-0.272 0.030-0.416 0.067-0.457 0.118-0.849 0.312-1.212 0.601-0.129 0.103-0.378 0.352-0.482 0.482-0.084 0.106-0.223 0.31-0.286 0.419-0.14 0.247-0.25 0.522-0.319 0.799-0.049 0.196-0.054 0.25-0.058 0.631-0.005 0.485 0.006 0.677 0.050 0.85 0.146 0.57 0.55 1.238 1.078 1.779l0.101 0.103-0.079 0.126c-0.206 0.331-0.469 0.837-0.668 1.286-0.327 0.738-0.501 1.353-0.567 2.001-0.013 0.126-0.018 0.563-0.008 0.723 0.036 0.589 0.107 0.994 0.305 1.736 0.090 0.339 0.128 0.415 0.226 0.463 0.038 0.019 0.051 0.021 0.118 0.021 0.061 0 0.082-0.003 0.109-0.016 0.051-0.024 0.088-0.060 0.135-0.133l0.043-0.067 0.005 0.048c0.002 0.025 0.006 0.111 0.008 0.19 0.009 0.313 0.051 0.636 0.136 1.048 0.123 0.598 0.274 1.062 0.484 1.483 0.163 0.328 0.366 0.644 0.643 1.005 0.289 0.376 0.447 0.507 0.633 0.523l0.051 0.005 0.087 0.117c0.394 0.529 0.846 1.015 1.386 1.489 0.3 0.262 0.406 0.348 1.189 0.946 0.923 0.706 1.334 1.024 1.807 1.402 0.618 0.493 0.95 0.779 1.294 1.112 0.389 0.377 0.657 0.672 1.045 1.149 0.223 0.274 0.25 0.301 0.344 0.339 0.036 0.014 0.057 0.017 0.129 0.017 0.151 0 0.163-0.009 0.463-0.374 0.377-0.457 0.561-0.662 0.886-0.987 0.32-0.319 0.49-0.472 0.911-0.825 0.533-0.445 1.047-0.848 2.349-1.843 0.839-0.642 1.008-0.778 1.36-1.101 0.462-0.424 0.829-0.828 1.198-1.32l0.091-0.121 0.059-0.004c0.064-0.004 0.122-0.024 0.196-0.067 0.056-0.034 0.24-0.217 0.332-0.333 0.121-0.151 0.289-0.382 0.393-0.536 0.418-0.625 0.647-1.195 0.82-2.040 0.091-0.45 0.134-0.78 0.148-1.168l0.006-0.144 0.034 0.057c0.040 0.068 0.083 0.11 0.141 0.136 0.037 0.017 0.052 0.020 0.11 0.020s0.073-0.003 0.11-0.021c0.084-0.041 0.137-0.121 0.186-0.279 0.053-0.174 0.194-0.742 0.236-0.949 0.065-0.327 0.11-0.722 0.125-1.090 0.023-0.601-0.049-1.104-0.249-1.752-0.203-0.658-0.612-1.53-1.037-2.215l-0.036-0.058 0.097-0.1c0.393-0.4 0.748-0.916 0.932-1.355 0.050-0.12 0.123-0.331 0.151-0.442 0.040-0.159 0.041-0.181 0.041-0.712 0-0.55 0.001-0.544-0.057-0.774-0.103-0.409-0.317-0.847-0.573-1.168-0.449-0.565-1.040-0.947-1.733-1.12-0.25-0.062-0.426-0.076-0.914-0.070-0.345 0.005-0.349 0.005-0.525 0.050-0.397 0.1-0.776 0.272-1.155 0.522-0.212 0.14-0.335 0.237-0.573 0.449-0.067 0.060-0.125 0.109-0.129 0.109s-0.079-0.027-0.166-0.059c-0.634-0.235-1.087-0.34-1.595-0.368-0.178-0.010-0.719-0.010-0.866 0-0.583 0.039-1.066 0.14-1.516 0.319-0.068 0.027-0.153 0.062-0.188 0.079s-0.070 0.029-0.076 0.029c-0.008 0-0.040-0.012-0.072-0.027-0.115-0.053-0.299-0.124-0.445-0.171-0.536-0.175-1.076-0.244-1.837-0.235-0.317 0.004-0.421 0.011-0.649 0.043-0.385 0.054-0.799 0.167-1.257 0.342-0.122 0.047-0.147 0.055-0.157 0.046-0.008-0.005-0.062-0.054-0.121-0.107-0.223-0.201-0.367-0.313-0.574-0.45-0.334-0.221-0.685-0.388-1.027-0.487-0.173-0.050-0.276-0.071-0.394-0.079-0.153-0.010-0.616-0.007-0.764 0.005zM9.532 4.695c0.159 0.028 0.296 0.074 0.488 0.161 0.284 0.129 0.497 0.272 0.704 0.473l0.086 0.084-0.031 0.033c-0.070 0.075-0.101 0.161-0.101 0.279 0 0.157 0.055 0.292 0.161 0.398 0.068 0.068 0.131 0.108 0.217 0.136 0.053 0.018 0.072 0.020 0.161 0.020 0.088 0.001 0.109-0.002 0.158-0.017 0.081-0.026 0.226-0.103 0.416-0.217 0.35-0.213 0.43-0.259 0.535-0.312 0.352-0.177 0.769-0.286 1.309-0.346 0.17-0.019 0.617-0.019 0.787 0 0.624 0.068 1.009 0.179 1.597 0.46l0.12 0.058h0.135l0.107-0.051c0.577-0.274 0.945-0.384 1.531-0.456 0.157-0.019 0.606-0.029 0.768-0.015 0.499 0.041 0.955 0.149 1.307 0.307 0.096 0.043 0.241 0.125 0.426 0.237 0.393 0.24 0.541 0.32 0.637 0.344 0.073 0.018 0.211 0.016 0.282-0.004 0.151-0.041 0.277-0.147 0.345-0.288 0.042-0.088 0.052-0.136 0.052-0.249 0-0.139-0.021-0.202-0.097-0.283l-0.035-0.037 0.049-0.044c0.239-0.22 0.349-0.302 0.566-0.421 0.163-0.089 0.38-0.18 0.521-0.218 0.15-0.040 0.343-0.061 0.491-0.054 0.398 0.019 0.752 0.139 1.045 0.356 0.268 0.2 0.457 0.43 0.576 0.708 0.204 0.477 0.238 1.003 0.091 1.459-0.073 0.228-0.184 0.435-0.331 0.616-0.061 0.075-0.22 0.233-0.292 0.291-0.102 0.082-0.096 0.079-0.29 0.084l-0.169 0.004-0.073 0.035c-0.093 0.045-0.184 0.108-0.289 0.198s-0.16 0.152-0.191 0.213c-0.023 0.045-0.024 0.054-0.024 0.124s0.002 0.079 0.024 0.125c0.032 0.068 0.049 0.092 0.21 0.3 0.244 0.316 0.42 0.574 0.563 0.831 0.145 0.26 0.409 0.799 0.568 1.159 0.193 0.437 0.36 0.975 0.424 1.369 0.013 0.076 0.024 0.149 0.026 0.16 0.003 0.019-0.005 0.014-0.073-0.048-0.184-0.166-0.304-0.247-0.425-0.289-0.116-0.040-0.23-0.034-0.334 0.018s-0.219 0.155-0.26 0.231c-0.039 0.073-0.051 0.137-0.051 0.27s0.008 0.204 0.052 0.48c0.093 0.584 0.12 0.865 0.136 1.441 0.021 0.79-0.050 1.557-0.199 2.137-0.038 0.145-0.114 0.386-0.123 0.386-0.003 0-0.009-0.008-0.014-0.017-0.020-0.042-0.11-0.152-0.197-0.238-0.080-0.080-0.104-0.099-0.154-0.124l-0.060-0.029h-0.098c-0.095 0-0.099 0.001-0.148 0.025-0.128 0.063-0.204 0.207-0.283 0.541-0.098 0.412-0.141 0.53-0.323 0.895-0.379 0.757-0.727 1.21-1.372 1.79-0.442 0.398-0.706 0.619-1.040 0.874-0.304 0.232-0.376 0.289-0.834 0.667-0.196 0.161-0.505 0.415-0.686 0.562-0.968 0.79-1.009 0.826-1.899 1.708-0.274 0.271-0.499 0.493-0.503 0.493s-0.229-0.22-0.501-0.488c-0.913-0.903-0.918-0.907-1.867-1.682-0.292-0.239-0.647-0.53-0.787-0.646-0.352-0.291-0.478-0.391-0.77-0.614-0.333-0.254-0.61-0.487-1.056-0.888-0.558-0.502-0.9-0.923-1.225-1.51-0.128-0.231-0.271-0.535-0.339-0.722-0.020-0.054-0.067-0.223-0.105-0.375-0.093-0.372-0.122-0.448-0.205-0.538-0.060-0.064-0.118-0.091-0.209-0.095-0.133-0.006-0.199 0.025-0.335 0.156-0.082 0.079-0.142 0.152-0.188 0.227l-0.026 0.044-0.011-0.028c-0.007-0.016-0.027-0.074-0.045-0.131-0.21-0.652-0.301-1.499-0.267-2.476 0.019-0.542 0.040-0.763 0.132-1.35 0.072-0.459 0.073-0.589 0.010-0.718-0.050-0.101-0.144-0.19-0.273-0.254-0.132-0.067-0.25-0.064-0.397 0.011-0.105 0.053-0.197 0.121-0.35 0.26-0.072 0.065-0.081 0.070-0.081 0.054 0-0.068 0.074-0.436 0.128-0.631 0.136-0.497 0.291-0.88 0.645-1.593 0.224-0.453 0.286-0.563 0.478-0.852 0.096-0.146 0.147-0.215 0.403-0.55 0.055-0.072 0.108-0.15 0.126-0.187 0.031-0.062 0.031-0.065 0.031-0.143 0-0.070-0.002-0.085-0.020-0.121-0.027-0.057-0.077-0.116-0.166-0.196-0.145-0.129-0.272-0.209-0.38-0.238-0.047-0.014-0.078-0.016-0.194-0.016h-0.138l-0.044-0.024c-0.057-0.030-0.136-0.098-0.253-0.215-0.112-0.113-0.166-0.178-0.243-0.297-0.134-0.204-0.235-0.454-0.276-0.682-0.115-0.649 0.099-1.376 0.524-1.775 0.307-0.287 0.657-0.454 1.081-0.512 0.121-0.016 0.395-0.011 0.517 0.011z"></path>
<path d="M10.987 9.322c-0.106 0.009-0.155 0.019-0.24 0.050-0.105 0.039-0.32 0.146-0.365 0.181-0.063 0.050-0.061 0.084 0.009 0.15 0.080 0.076 0.274 0.186 0.413 0.235 0.066 0.024 0.217 0.057 0.412 0.091 0.082 0.015 0.199 0.035 0.259 0.046 0.134 0.024 0.262 0.056 0.313 0.078 0.040 0.017 0.084 0.059 0.084 0.079 0 0.023-0.018 0.046-0.101 0.127-0.113 0.111-0.136 0.16-0.155 0.328-0.012 0.102-0.005 0.405 0.011 0.497 0.061 0.341 0.315 0.673 0.638 0.832 0.143 0.070 0.243 0.101 0.397 0.121 0.262 0.035 0.568-0.026 0.788-0.158 0.082-0.049 0.199-0.138 0.292-0.223 0.11-0.101 0.169-0.149 0.204-0.164 0.057-0.025 0.082-0.003 0.073 0.064-0.010 0.068-0.023 0.11-0.142 0.426-0.139 0.375-0.681 1.841-0.786 2.129-0.588 1.616-0.815 2.368-0.862 2.85-0.040 0.426 0.142 1.019 0.437 1.419 0.153 0.207 0.468 0.519 0.666 0.659 0.148 0.105 0.196 0.127 0.316 0.146 0.043 0.007 0.128 0.027 0.19 0.044 0.297 0.085 0.644 0.121 0.832 0.084 0.205-0.041 0.395-0.11 0.761-0.281 0.305-0.142 0.439-0.186 0.641-0.212 0.095-0.012 0.28 0.001 0.397 0.027 0.164 0.037 0.262 0.075 0.626 0.246 0.338 0.157 0.569 0.227 0.784 0.235 0.228 0.009 0.407-0.019 0.777-0.119 0.028-0.008 0.078-0.017 0.112-0.022 0.074-0.011 0.128-0.029 0.2-0.072 0.224-0.133 0.574-0.463 0.772-0.727 0.144-0.192 0.282-0.477 0.357-0.735 0.131-0.452 0.119-0.753-0.059-1.406-0.127-0.465-0.363-1.171-0.719-2.145-0.143-0.391-0.645-1.75-0.759-2.055-0.147-0.392-0.16-0.428-0.165-0.484-0.005-0.053 0.005-0.078 0.030-0.078s0.084 0.037 0.145 0.091c0.235 0.206 0.253 0.222 0.34 0.277 0.084 0.055 0.145 0.085 0.241 0.119 0.172 0.062 0.301 0.079 0.516 0.071 0.132-0.005 0.226-0.023 0.352-0.068 0.337-0.121 0.617-0.41 0.733-0.757 0.037-0.111 0.042-0.163 0.042-0.435 0.001-0.274-0.003-0.306-0.049-0.401-0.018-0.038-0.042-0.067-0.108-0.131-0.099-0.097-0.106-0.107-0.089-0.139 0.029-0.057 0.139-0.091 0.502-0.154 0.24-0.042 0.367-0.067 0.465-0.091 0.18-0.045 0.433-0.181 0.528-0.284 0.026-0.028 0.031-0.038 0.031-0.065 0-0.045-0.028-0.068-0.169-0.139-0.14-0.071-0.274-0.126-0.346-0.141-0.136-0.028-0.718-0.034-0.913-0.008-0.312 0.041-0.552 0.146-0.994 0.437-0.188 0.124-0.256 0.171-0.697 0.478-0.154 0.108-0.382 0.265-0.506 0.349-0.343 0.232-0.506 0.353-0.657 0.487-0.137 0.121-0.255 0.248-0.282 0.305-0.015 0.031-0.014 0.041 0.058 0.277 0.166 0.555 0.34 1.074 0.521 1.555 0.262 0.7 0.725 1.99 0.882 2.461 0.145 0.436 0.31 0.988 0.391 1.301 0.030 0.114 0.032 0.125 0.032 0.232s-0.002 0.116-0.028 0.204c-0.061 0.205-0.16 0.43-0.27 0.613-0.199 0.332-0.427 0.513-0.787 0.622-0.131 0.040-0.199 0.049-0.343 0.049-0.107 0-0.134-0.002-0.177-0.016-0.073-0.023-0.193-0.084-0.363-0.187-0.292-0.175-0.438-0.247-0.65-0.32-0.068-0.023-0.134-0.049-0.147-0.058-0.035-0.023-0.059-0.075-0.055-0.116 0.007-0.061 0.070-0.138 0.366-0.44 0.251-0.258 0.295-0.304 0.36-0.386 0.105-0.132 0.173-0.244 0.229-0.373 0.054-0.126 0.063-0.173 0.064-0.318 0-0.146-0.008-0.186-0.057-0.288-0.058-0.12-0.147-0.218-0.279-0.309l-0.068-0.046h-1.966l-0.071 0.053c-0.188 0.139-0.287 0.276-0.322 0.445-0.016 0.073-0.016 0.214 0 0.287 0.017 0.081 0.050 0.173 0.101 0.273 0.091 0.182 0.167 0.275 0.521 0.637 0.242 0.248 0.346 0.364 0.372 0.414 0.028 0.056 0.011 0.136-0.038 0.171-0.013 0.009-0.082 0.036-0.153 0.061-0.207 0.070-0.349 0.14-0.638 0.313-0.186 0.113-0.307 0.174-0.379 0.194-0.076 0.020-0.277 0.019-0.387-0.004-0.328-0.066-0.619-0.244-0.802-0.489-0.2-0.268-0.384-0.676-0.417-0.922-0.011-0.087-0.002-0.152 0.050-0.357 0.095-0.37 0.26-0.913 0.421-1.384 0.216-0.63 0.609-1.72 0.867-2.407 0.201-0.535 0.553-1.624 0.553-1.712 0-0.035-0.034-0.085-0.118-0.172-0.21-0.217-0.271-0.265-1.141-0.87-0.973-0.677-1.114-0.769-1.369-0.892-0.173-0.084-0.358-0.137-0.535-0.156-0.097-0.010-0.652-0.016-0.75-0.008z"></path>
</symbol>
<symbol id="icon-home" viewBox="0 0 32 32">
<path d="M32 18.451l-16-12.42-16 12.42v-5.064l16-12.42 16 12.42zM28 18v12h-8v-8h-8v8h-8v-12l12-9z"></path>
</symbol>
<symbol id="icon-cart" viewBox="0 0 32 32">
<path d="M12 29c0 1.657-1.343 3-3 3s-3-1.343-3-3c0-1.657 1.343-3 3-3s3 1.343 3 3z"></path>
<path d="M32 29c0 1.657-1.343 3-3 3s-3-1.343-3-3c0-1.657 1.343-3 3-3s3 1.343 3 3z"></path>
<path d="M32 16v-12h-24c0-1.105-0.895-2-2-2h-6v2h4l1.502 12.877c-0.915 0.733-1.502 1.859-1.502 3.123 0 2.209 1.791 4 4 4h24v-2h-24c-1.105 0-2-0.895-2-2 0-0.007 0-0.014 0-0.020l26-3.98z"></path>
</symbol>
<symbol id="icon-phone" viewBox="0 0 32 32">
<path d="M22 20c-2 2-2 4-4 4s-4-2-6-4-4-4-4-6 2-2 4-4-4-8-6-8-6 6-6 6c0 4 4.109 12.109 8 16s12 8 16 8c0 0 6-4 6-6s-6-8-8-6z"></path>
</symbol>
<symbol id="icon-location" viewBox="0 0 32 32">
<path d="M16 0c-5.523 0-10 4.477-10 10 0 10 10 22 10 22s10-12 10-22c0-5.523-4.477-10-10-10zM16 16c-3.314 0-6-2.686-6-6s2.686-6 6-6 6 2.686 6 6-2.686 6-6 6z"></path>
</symbol>
<symbol id="icon-mobile2" viewBox="0 0 32 32">
<path d="M24 0h-18c-1.1 0-2 0.9-2 2v28c0 1.1 0.9 2 2 2h18c1.1 0 2-0.9 2-2v-28c0-1.1-0.9-2-2-2zM15 30.556c-0.859 0-1.556-0.697-1.556-1.556s0.697-1.556 1.556-1.556 1.556 0.697 1.556 1.556-0.697 1.556-1.556 1.556zM24 26h-18v-22h18v22z"></path>
</symbol>
<symbol id="icon-bubbles3" viewBox="0 0 36 32">
<path d="M34 28.161c0 1.422 0.813 2.653 2 3.256v0.498c-0.332 0.045-0.671 0.070-1.016 0.070-2.125 0-4.042-0.892-5.398-2.321-0.819 0.218-1.688 0.336-2.587 0.336-4.971 0-9-3.582-9-8s4.029-8 9-8c4.971 0 9 3.582 9 8 0 1.73-0.618 3.331-1.667 4.64-0.213 0.463-0.333 0.979-0.333 1.522zM7.209 6.912c-2.069 1.681-3.209 3.843-3.209 6.088 0 1.259 0.35 2.481 1.039 3.63 0.711 1.185 1.781 2.268 3.093 3.133 0.949 0.625 1.587 1.623 1.755 2.747 0.056 0.375 0.091 0.753 0.105 1.129 0.233-0.194 0.461-0.401 0.684-0.624 0.755-0.755 1.774-1.172 2.828-1.172 0.168 0 0.336 0.011 0.505 0.032 0.655 0.083 1.323 0.125 1.987 0.126v4c-0.848-0-1.68-0.054-2.492-0.158-3.437 3.437-7.539 4.053-11.505 4.144v-0.841c2.142-1.049 4-2.961 4-5.145 0-0.305-0.024-0.604-0.068-0.897-3.619-2.383-5.932-6.024-5.932-10.103 0-7.18 7.163-13 16-13 8.702 0 15.781 5.644 15.995 12.672-1.284-0.572-2.683-0.919-4.133-1.018-0.36-1.752-1.419-3.401-3.070-4.742-1.104-0.897-2.404-1.606-3.863-2.108-1.553-0.534-3.211-0.804-4.928-0.804s-3.375 0.271-4.928 0.804c-1.46 0.502-2.76 1.211-3.863 2.108z"></path>
</symbol>
<symbol id="icon-enlarge" viewBox="0 0 32 32">
<path d="M32 0h-13l5 5-6 6 3 3 6-6 5 5z"></path>
<path d="M32 32v-13l-5 5-6-6-3 3 6 6-5 5z"></path>
<path d="M0 32h13l-5-5 6-6-3-3-6 6-5-5z"></path>
<path d="M0 0v13l5-5 6 6 3-3-6-6 5-5z"></path>
</symbol>
<symbol id="icon-shrink" viewBox="0 0 32 32">
<path d="M18 14h13l-5-5 6-6-3-3-6 6-5-5z"></path>
<path d="M18 18v13l5-5 6 6 3-3-6-6 5-5z"></path>
<path d="M14 18h-13l5 5-6 6 3 3 6-6 5 5z"></path>
<path d="M14 14v-13l-5 5-6-6-3 3 6 6-5 5z"></path>
</symbol>
<symbol id="icon-menu" viewBox="0 0 32 32">
<path d="M2 6h28v6h-28zM2 14h28v6h-28zM2 22h28v6h-28z"></path>
</symbol>
<symbol id="icon-man" viewBox="0 0 32 32">
<path d="M18 3c0 1.657-1.343 3-3 3s-3-1.343-3-3c0-1.657 1.343-3 3-3s3 1.343 3 3z"></path>
<path d="M18 8h-6c-1.105 0-2 0.895-2 2v10h2v12h2.5v-12h1v12h2.5v-12h2v-10c0-1.105-0.895-2-2-2z"></path>
</symbol>
<symbol id="icon-woman" viewBox="0 0 32 32">
<path d="M18 3c0 1.657-1.343 3-3 3s-3-1.343-3-3c0-1.657 1.343-3 3-3s3 1.343 3 3z"></path>
<path d="M22.469 16l1.531-1.109-4.165-6.441c-0.185-0.281-0.499-0.45-0.835-0.45h-8c-0.336 0-0.65 0.169-0.835 0.45l-4.165 6.441 1.531 1.109 3.458-4.487 1.202 2.804-4.191 7.683h3.833l0.667 10h2v-10h1v10h2l0.667-10h3.833l-4.191-7.683 1.202-2.804 3.458 4.487z"></path>
</symbol>
<symbol id="icon-play3" viewBox="0 0 32 32">
<path d="M6 4l20 12-20 12z"></path>
</symbol>
<symbol id="icon-pause2" viewBox="0 0 32 32">
<path d="M4 4h10v24h-10zM18 4h10v24h-10z"></path>
</symbol>
<symbol id="icon-stop2" viewBox="0 0 32 32">
<path d="M4 4h24v24h-24z"></path>
</symbol>
<symbol id="icon-volume-high" viewBox="0 0 34 32">
<path d="M27.814 28.814c-0.384 0-0.768-0.146-1.061-0.439-0.586-0.586-0.586-1.535 0-2.121 2.739-2.739 4.247-6.38 4.247-10.253s-1.508-7.514-4.247-10.253c-0.586-0.586-0.586-1.536 0-2.121s1.536-0.586 2.121 0c3.305 3.305 5.126 7.7 5.126 12.374s-1.82 9.069-5.126 12.374c-0.293 0.293-0.677 0.439-1.061 0.439zM22.485 25.985c-0.384 0-0.768-0.146-1.061-0.439-0.586-0.586-0.586-1.535 0-2.121 4.094-4.094 4.094-10.755 0-14.849-0.586-0.586-0.586-1.536 0-2.121s1.536-0.586 2.121 0c2.55 2.55 3.954 5.94 3.954 9.546s-1.404 6.996-3.954 9.546c-0.293 0.293-0.677 0.439-1.061 0.439v0zM17.157 23.157c-0.384 0-0.768-0.146-1.061-0.439-0.586-0.586-0.586-1.535 0-2.121 2.534-2.534 2.534-6.658 0-9.192-0.586-0.586-0.586-1.536 0-2.121s1.535-0.586 2.121 0c3.704 3.704 3.704 9.731 0 13.435-0.293 0.293-0.677 0.439-1.061 0.439z"></path>
<path d="M13 30c-0.26 0-0.516-0.102-0.707-0.293l-7.707-7.707h-3.586c-0.552 0-1-0.448-1-1v-10c0-0.552 0.448-1 1-1h3.586l7.707-7.707c0.286-0.286 0.716-0.372 1.090-0.217s0.617 0.519 0.617 0.924v26c0 0.404-0.244 0.769-0.617 0.924-0.124 0.051-0.254 0.076-0.383 0.076z"></path>
</symbol>
<symbol id="icon-volume-mute2" viewBox="0 0 32 32">
<path d="M30 19.348v2.652h-2.652l-3.348-3.348-3.348 3.348h-2.652v-2.652l3.348-3.348-3.348-3.348v-2.652h2.652l3.348 3.348 3.348-3.348h2.652v2.652l-3.348 3.348 3.348 3.348z"></path>
<path d="M13 30c-0.26 0-0.516-0.102-0.707-0.293l-7.707-7.707h-3.586c-0.552 0-1-0.448-1-1v-10c0-0.552 0.448-1 1-1h3.586l7.707-7.707c0.286-0.286 0.716-0.372 1.090-0.217s0.617 0.519 0.617 0.924v26c0 0.404-0.244 0.769-0.617 0.924-0.124 0.051-0.254 0.076-0.383 0.076z"></path>
</symbol>
<symbol id="icon-checkbox-checked" viewBox="0 0 32 32">
<path d="M28 0h-24c-2.2 0-4 1.8-4 4v24c0 2.2 1.8 4 4 4h24c2.2 0 4-1.8 4-4v-24c0-2.2-1.8-4-4-4zM14 24.828l-7.414-7.414 2.828-2.828 4.586 4.586 9.586-9.586 2.828 2.828-12.414 12.414z"></path>
</symbol>
<symbol id="icon-checkbox-unchecked" viewBox="0 0 32 32">
<path d="M28 0h-24c-2.2 0-4 1.8-4 4v24c0 2.2 1.8 4 4 4h24c2.2 0 4-1.8 4-4v-24c0-2.2-1.8-4-4-4zM28 28h-24v-24h24v24z"></path>
</symbol>
<symbol id="icon-share2" viewBox="0 0 32 32">
<path d="M27 22c-1.411 0-2.685 0.586-3.594 1.526l-13.469-6.734c0.041-0.258 0.063-0.522 0.063-0.791s-0.022-0.534-0.063-0.791l13.469-6.734c0.909 0.94 2.183 1.526 3.594 1.526 2.761 0 5-2.239 5-5s-2.239-5-5-5-5 2.239-5 5c0 0.269 0.022 0.534 0.063 0.791l-13.469 6.734c-0.909-0.94-2.183-1.526-3.594-1.526-2.761 0-5 2.239-5 5s2.239 5 5 5c1.411 0 2.685-0.586 3.594-1.526l13.469 6.734c-0.041 0.258-0.063 0.522-0.063 0.791 0 2.761 2.239 5 5 5s5-2.239 5-5c0-2.761-2.239-5-5-5z"></path>
</symbol>
<symbol id="icon-facebook" viewBox="0 0 32 32">
<path d="M19 6h5v-6h-5c-3.86 0-7 3.14-7 7v3h-4v6h4v16h6v-16h5l1-6h-6v-3c0-0.542 0.458-1 1-1z"></path>
</symbol>
<symbol id="icon-instagram" viewBox="0 0 32 32">
<path d="M16 2.881c4.275 0 4.781 0.019 6.462 0.094 1.563 0.069 2.406 0.331 2.969 0.55 0.744 0.288 1.281 0.638 1.837 1.194 0.563 0.563 0.906 1.094 1.2 1.838 0.219 0.563 0.481 1.412 0.55 2.969 0.075 1.688 0.094 2.194 0.094 6.463s-0.019 4.781-0.094 6.463c-0.069 1.563-0.331 2.406-0.55 2.969-0.288 0.744-0.637 1.281-1.194 1.837-0.563 0.563-1.094 0.906-1.837 1.2-0.563 0.219-1.413 0.481-2.969 0.55-1.688 0.075-2.194 0.094-6.463 0.094s-4.781-0.019-6.463-0.094c-1.563-0.069-2.406-0.331-2.969-0.55-0.744-0.288-1.281-0.637-1.838-1.194-0.563-0.563-0.906-1.094-1.2-1.837-0.219-0.563-0.481-1.413-0.55-2.969-0.075-1.688-0.094-2.194-0.094-6.463s0.019-4.781 0.094-6.463c0.069-1.563 0.331-2.406 0.55-2.969 0.288-0.744 0.638-1.281 1.194-1.838 0.563-0.563 1.094-0.906 1.838-1.2 0.563-0.219 1.412-0.481 2.969-0.55 1.681-0.075 2.188-0.094 6.463-0.094zM16 0c-4.344 0-4.887 0.019-6.594 0.094-1.7 0.075-2.869 0.35-3.881 0.744-1.056 0.412-1.95 0.956-2.837 1.85-0.894 0.888-1.438 1.781-1.85 2.831-0.394 1.019-0.669 2.181-0.744 3.881-0.075 1.713-0.094 2.256-0.094 6.6s0.019 4.887 0.094 6.594c0.075 1.7 0.35 2.869 0.744 3.881 0.413 1.056 0.956 1.95 1.85 2.837 0.887 0.887 1.781 1.438 2.831 1.844 1.019 0.394 2.181 0.669 3.881 0.744 1.706 0.075 2.25 0.094 6.594 0.094s4.888-0.019 6.594-0.094c1.7-0.075 2.869-0.35 3.881-0.744 1.050-0.406 1.944-0.956 2.831-1.844s1.438-1.781 1.844-2.831c0.394-1.019 0.669-2.181 0.744-3.881 0.075-1.706 0.094-2.25 0.094-6.594s-0.019-4.887-0.094-6.594c-0.075-1.7-0.35-2.869-0.744-3.881-0.394-1.063-0.938-1.956-1.831-2.844-0.887-0.887-1.781-1.438-2.831-1.844-1.019-0.394-2.181-0.669-3.881-0.744-1.712-0.081-2.256-0.1-6.6-0.1v0z"></path>
<path d="M16 7.781c-4.537 0-8.219 3.681-8.219 8.219s3.681 8.219 8.219 8.219 8.219-3.681 8.219-8.219c0-4.537-3.681-8.219-8.219-8.219zM16 21.331c-2.944 0-5.331-2.387-5.331-5.331s2.387-5.331 5.331-5.331c2.944 0 5.331 2.387 5.331 5.331s-2.387 5.331-5.331 5.331z"></path>
<path d="M26.462 7.456c0 1.060-0.859 1.919-1.919 1.919s-1.919-0.859-1.919-1.919c0-1.060 0.859-1.919 1.919-1.919s1.919 0.859 1.919 1.919z"></path>
</symbol>
<symbol id="icon-whatsapp" viewBox="0 0 32 32">
<path d="M27.281 4.65c-2.994-3-6.975-4.65-11.219-4.65-8.738 0-15.85 7.112-15.85 15.856 0 2.794 0.731 5.525 2.119 7.925l-2.25 8.219 8.406-2.206c2.319 1.262 4.925 1.931 7.575 1.931h0.006c0 0 0 0 0 0 8.738 0 15.856-7.113 15.856-15.856 0-4.238-1.65-8.219-4.644-11.219zM16.069 29.050v0c-2.369 0-4.688-0.637-6.713-1.837l-0.481-0.288-4.987 1.306 1.331-4.863-0.313-0.5c-1.325-2.094-2.019-4.519-2.019-7.012 0-7.269 5.912-13.181 13.188-13.181 3.519 0 6.831 1.375 9.319 3.862 2.488 2.494 3.856 5.8 3.856 9.325-0.006 7.275-5.919 13.188-13.181 13.188zM23.294 19.175c-0.394-0.2-2.344-1.156-2.706-1.288s-0.625-0.2-0.894 0.2c-0.262 0.394-1.025 1.288-1.256 1.556-0.231 0.262-0.462 0.3-0.856 0.1s-1.675-0.619-3.188-1.969c-1.175-1.050-1.975-2.35-2.206-2.744s-0.025-0.613 0.175-0.806c0.181-0.175 0.394-0.463 0.594-0.694s0.262-0.394 0.394-0.662c0.131-0.262 0.069-0.494-0.031-0.694s-0.894-2.15-1.219-2.944c-0.319-0.775-0.65-0.669-0.894-0.681-0.231-0.012-0.494-0.012-0.756-0.012s-0.694 0.1-1.056 0.494c-0.363 0.394-1.387 1.356-1.387 3.306s1.419 3.831 1.619 4.1c0.2 0.262 2.794 4.269 6.769 5.981 0.944 0.406 1.681 0.65 2.256 0.837 0.95 0.3 1.813 0.256 2.494 0.156 0.762-0.113 2.344-0.956 2.675-1.881s0.331-1.719 0.231-1.881c-0.094-0.175-0.356-0.275-0.756-0.475z"></path>
</symbol>
<symbol id="icon-spotify" viewBox="0 0 32 32">
<path d="M16 0c-8.8 0-16 7.2-16 16s7.2 16 16 16 16-7.2 16-16-7.119-16-16-16zM23.363 23.119c-0.319 0.481-0.881 0.637-1.363 0.319-3.762-2.319-8.481-2.8-14.081-1.519-0.563 0.163-1.037-0.238-1.2-0.719-0.162-0.563 0.237-1.038 0.719-1.2 6.081-1.363 11.363-0.8 15.519 1.762 0.563 0.238 0.644 0.875 0.406 1.356zM25.281 18.719c-0.4 0.563-1.119 0.8-1.681 0.4-4.319-2.637-10.881-3.438-15.919-1.837-0.638 0.163-1.362-0.163-1.519-0.8-0.162-0.637 0.162-1.363 0.8-1.519 5.838-1.762 13.037-0.881 18 2.163 0.475 0.238 0.719 1.038 0.319 1.594zM25.438 14.238c-5.119-3.037-13.681-3.363-18.563-1.838-0.8 0.238-1.6-0.238-1.838-0.963-0.237-0.8 0.237-1.6 0.963-1.838 5.681-1.681 15.038-1.363 20.962 2.162 0.719 0.4 0.962 1.363 0.563 2.081-0.406 0.556-1.363 0.794-2.087 0.394z"></path>
</symbol>
<symbol id="icon-twitter" viewBox="0 0 32 32">
<path d="M32 7.075c-1.175 0.525-2.444 0.875-3.769 1.031 1.356-0.813 2.394-2.1 2.887-3.631-1.269 0.75-2.675 1.3-4.169 1.594-1.2-1.275-2.906-2.069-4.794-2.069-3.625 0-6.563 2.938-6.563 6.563 0 0.512 0.056 1.012 0.169 1.494-5.456-0.275-10.294-2.888-13.531-6.862-0.563 0.969-0.887 2.1-0.887 3.3 0 2.275 1.156 4.287 2.919 5.463-1.075-0.031-2.087-0.331-2.975-0.819 0 0.025 0 0.056 0 0.081 0 3.181 2.263 5.838 5.269 6.437-0.55 0.15-1.131 0.231-1.731 0.231-0.425 0-0.831-0.044-1.237-0.119 0.838 2.606 3.263 4.506 6.131 4.563-2.25 1.762-5.075 2.813-8.156 2.813-0.531 0-1.050-0.031-1.569-0.094 2.913 1.869 6.362 2.95 10.069 2.95 12.075 0 18.681-10.006 18.681-18.681 0-0.287-0.006-0.569-0.019-0.85 1.281-0.919 2.394-2.075 3.275-3.394z"></path>
</symbol>
<symbol id="icon-youtube" viewBox="0 0 32 32">
<path d="M31.681 9.6c0 0-0.313-2.206-1.275-3.175-1.219-1.275-2.581-1.281-3.206-1.356-4.475-0.325-11.194-0.325-11.194-0.325h-0.012c0 0-6.719 0-11.194 0.325-0.625 0.075-1.987 0.081-3.206 1.356-0.963 0.969-1.269 3.175-1.269 3.175s-0.319 2.588-0.319 5.181v2.425c0 2.587 0.319 5.181 0.319 5.181s0.313 2.206 1.269 3.175c1.219 1.275 2.819 1.231 3.531 1.369 2.563 0.244 10.881 0.319 10.881 0.319s6.725-0.012 11.2-0.331c0.625-0.075 1.988-0.081 3.206-1.356 0.962-0.969 1.275-3.175 1.275-3.175s0.319-2.587 0.319-5.181v-2.425c-0.006-2.588-0.325-5.181-0.325-5.181zM12.694 20.15v-8.994l8.644 4.513-8.644 4.481z"></path>
</symbol>
<symbol id="icon-linkedin2" viewBox="0 0 32 32">
<path d="M12 12h5.535v2.837h0.079c0.77-1.381 2.655-2.837 5.464-2.837 5.842 0 6.922 3.637 6.922 8.367v9.633h-5.769v-8.54c0-2.037-0.042-4.657-3.001-4.657-3.005 0-3.463 2.218-3.463 4.509v8.688h-5.767v-18z"></path>
<path d="M2 12h6v18h-6v-18z"></path>
<path d="M8 7c0 1.657-1.343 3-3 3s-3-1.343-3-3c0-1.657 1.343-3 3-3s3 1.343 3 3z"></path>
</symbol>
</defs>
</svg>
